rat_walk_bone_smooth
version=1
nRows=34
nColumns=15
inDegrees=yes
endheader
time	sacrum_pitch	sacrum_roll	sacrum_yaw	sacrum_x	sacrum_y	sacrum_z	sacroiliac_flx	hip_flx	hip_add	hip_int	knee_flx	ankle_flx	ankle_add	ankle_int
0.000000	24.574154	0.000000	0.000000	0.000000	0.672500	0.000000	3.700000	64.753595	-10.000000	0.000000	-107.688280	6.606829	-5.000000	0.000000
0.001935	24.660089	0.000000	0.000000	0.000000	0.672500	0.000000	3.700000	64.615325	-10.000000	0.000000	-107.764325	6.533391	-5.000000	0.000000
0.003870	24.735314	0.000000	0.000000	0.000000	0.672500	0.000000	3.700000	64.463117	-10.000000	0.000000	-107.877008	6.502146	-5.000000	0.000000
0.005805	24.800117	0.000000	0.000000	0.000000	0.672500	0.000000	3.700000	64.296623	-10.000000	0.000000	-108.024334	6.511241	-5.000000	0.000000
0.007740	24.854786	0.000000	0.000000	0.000000	0.672500	0.000000	3.700000	64.115556	-10.000000	0.000000	-108.204328	6.558733	-5.000000	0.000000
0.009675	24.899609	0.000000	0.000000	0.000000	0.672500	0.000000	3.700000	63.919724	-10.000000	0.000000	-108.415065	6.642609	-5.000000	0.000000
0.011610	24.934875	0.000000	0.000000	0.000000	0.672500	0.000000	3.700000	63.709057	-10.000000	0.000000	-108.654688	6.760796	-5.000000	0.000000
0.013545	24.960871	0.000000	0.000000	0.000000	0.672500	0.000000	3.700000	63.483628	-10.000000	0.000000	-108.921422	6.911171	-5.000000	0.000000
0.015480	24.977886	0.000000	0.000000	0.000000	0.672500	0.000000	3.700000	63.243669	-10.000000	0.000000	-109.213583	7.091564	-5.000000	0.000000
0.017415	24.986207	0.000000	0.000000	0.000000	0.672500	0.000000	3.700000	62.989577	-10.000000	0.000000	-109.529578	7.299758	-5.000000	0.000000
0.019350	24.986124	0.000000	0.000000	0.000000	0.672500	0.000000	3.700000	62.721907	-10.000000	0.000000	-109.867904	7.533493	-5.000000	0.000000
0.021285	24.977923	0.000000	0.000000	0.000000	0.672500	0.000000	3.700000	62.441365	-10.000000	0.000000	-110.227140	7.790466	-5.000000	0.000000
0.023220	24.961894	0.000000	0.000000	0.000000	0.672500	0.000000	3.700000	62.148784	-10.000000	0.000000	-110.605934	8.068338	-5.000000	0.000000
0.025155	24.938324	0.000000	0.000000	0.000000	0.672500	0.000000	3.700000	61.845095	-10.000000	0.000000	-111.002993	8.364737	-5.000000	0.000000
0.027090	24.907502	0.000000	0.000000	0.000000	0.672500	0.000000	3.700000	61.531299	-10.000000	0.000000	-111.417065	8.677277	-5.000000	0.000000
0.029025	24.869716	0.000000	0.000000	0.000000	0.672500	0.000000	3.700000	61.208428	-10.000000	0.000000	-111.846920	9.003572	-5.000000	0.000000
0.030960	24.825253	0.000000	0.000000	0.000000	0.672500	0.000000	3.700000	60.877505	-10.000000	0.000000	-112.291337	9.341262	-5.000000	0.000000
0.032895	24.774403	0.000000	0.000000	0.000000	0.672500	0.000000	3.700000	60.539509	-10.000000	0.000000	-112.749086	9.688042	-5.000000	0.000000
0.034830	24.717452	0.000000	0.000000	0.000000	0.672500	0.000000	3.700000	60.195343	-10.000000	0.000000	-113.218909	10.041692	-5.000000	0.000000
0.036765	24.654690	0.000000	0.000000	0.000000	0.672500	0.000000	3.700000	59.845797	-10.000000	0.000000	-113.699513	10.400113	-5.000000	0.000000
0.038700	24.586405	0.000000	0.000000	0.000000	0.672500	0.000000	3.700000	59.491531	-10.000000	0.000000	-114.189555	10.761358	-5.000000	0.000000
0.040635	24.512884	0.000000	0.000000	0.000000	0.672500	0.000000	3.700000	59.133055	-10.000000	0.000000	-114.687637	11.123672	-5.000000	0.000000
0.042570	24.434416	0.000000	0.000000	0.000000	0.672500	0.000000	3.700000	58.770720	-10.000000	0.000000	-115.192300	11.485509	-5.000000	0.000000
0.044505	24.351289	0.000000	0.000000	0.000000	0.672500	0.000000	3.700000	58.404717	-10.000000	0.000000	-115.702025	11.845559	-5.000000	0.000000
0.046440	24.263791	0.000000	0.000000	0.000000	0.672500	0.000000	3.700000	58.035084	-10.000000	0.000000	-116.215235	12.202761	-5.000000	0.000000
0.048375	24.172210	0.000000	0.000000	0.000000	0.672500	0.000000	3.700000	57.661715	-10.000000	0.000000	-116.730302	12.556297	-5.000000	0.000000
0.050310	24.076835	0.000000	0.000000	0.000000	0.672500	0.000000	3.700000	57.284383	-10.000000	0.000000	-117.245551	12.905592	-5.000000	0.000000
0.052245	23.977953	0.000000	0.000000	0.000000	0.672500	0.000000	3.700000	56.902763	-10.000000	0.000000	-117.759278	13.250287	-5.000000	0.000000
0.054180	23.875853	0.000000	0.000000	0.000000	0.672500	0.000000	3.700000	56.516451	-10.000000	0.000000	-118.269758	13.590216	-5.000000	0.000000
0.056115	23.770823	0.000000	0.000000	0.000000	0.672500	0.000000	3.700000	56.124996	-10.000000	0.000000	-118.775261	13.925366	-5.000000	0.000000
0.058050	23.663151	0.000000	0.000000	0.000000	0.672500	0.000000	3.700000	55.727922	-10.000000	0.000000	-119.274067	14.255840	-5.000000	0.000000
0.059985	23.553125	0.000000	0.000000	0.000000	0.672500	0.000000	3.700000	55.324755	-10.000000	0.000000	-119.764479	14.581810	-5.000000	0.000000
0.061920	23.441033	0.000000	0.000000	0.000000	0.672500	0.000000	3.700000	54.915040	-10.000000	0.000000	-120.244839	14.903472	-5.000000	0.000000
0.063855	23.327164	0.000000	0.000000	0.000000	0.672500	0.000000	3.700000	54.498361	-10.000000	0.000000	-120.713540	15.221003	-5.000000	0.000000
